<?xml version="1.0" encoding="UTF-8"?>
<svg id="_图层_1" data-name="图层 1" xmlns="http://www.w3.org/2000/svg" viewBox="0 0 750 750">
  <defs>
    <style>
      .cls-1 {
        fill: #000;
      }

      .cls-1, .cls-2, .cls-3 {
        stroke-width: 0px;
      }

      .cls-2 {
        fill: red;
      }

      .cls-3 {
        fill: #fff;
      }
    </style>
  </defs>
  <polyline class="cls-2" points="0 750 750 750 750 500 0 0"/>
  <path class="cls-3" d="M105.77,369.95v103.02h-53.22V197.24h92.42c15.27,0,29.1,1.8,41.47,5.4,12.37,3.6,22.98,8.87,31.82,15.81,8.71,6.94,15.43,15.59,20.17,25.94,4.73,10.35,7.1,22.35,7.1,35.98,0,9.85-1.17,18.72-3.5,26.61-2.34,7.89-5.65,14.93-9.94,21.12-4.42,6.31-9.69,11.81-15.81,16.48-6.13,4.67-12.97,8.71-20.55,12.12l59.28,113.82v2.46h-57l-51.89-103.02h-40.34ZM145.16,326.77c8.21,0,15.43-1.17,21.68-3.5,6.25-2.34,11.33-5.71,15.25-10.13,3.28-3.53,5.78-7.76,7.48-12.69,1.7-4.92,2.56-10.42,2.56-16.48,0-7.32-1.11-13.79-3.31-19.41-2.21-5.62-5.52-10.26-9.94-13.92-3.91-3.28-8.71-5.81-14.39-7.58-5.68-1.77-12.19-2.65-19.51-2.65h-39.2v86.36h39.39Z"/>
  <path class="cls-1" d="M164.44,656.34v26.35H52.55v-168.99h32.73v142.65h79.16Z"/>
  <path class="cls-1" d="M271.11,557.11v99.35h34.01v26.23h-102.37v-26.23h35.75v-73.01h-35.75v-26.35h68.36ZM237.5,518.05c.89-2.13,2.15-3.96,3.77-5.51,1.62-1.47,3.58-2.63,5.86-3.48,2.28-.85,4.82-1.28,7.6-1.28,5.73,0,10.27,1.61,13.64,4.82,3.37,3.21,5.05,7.33,5.05,12.36s-1.68,9.15-5.05,12.36c-3.37,3.21-7.91,4.82-13.64,4.82-2.79,0-5.32-.42-7.6-1.28-2.28-.85-4.24-2.05-5.86-3.6-1.62-1.47-2.88-3.27-3.77-5.4-.89-2.13-1.33-4.43-1.33-6.91s.44-4.78,1.33-6.91Z"/>
  <path class="cls-1" d="M336.8,557.11h29.25l1.97,17.41c1.62-2.32,3.4-4.45,5.34-6.38s3.98-3.67,6.15-5.22c3.71-2.63,7.78-4.64,12.19-6.04,4.41-1.39,9.09-2.09,14.04-2.09,6.34,0,12.15.93,17.41,2.79,5.26,1.86,9.83,4.8,13.7,8.82,3.79,4.1,6.75,9.34,8.88,15.73,2.13,6.38,3.19,14.14,3.19,23.27v77.3h-32.27v-76.84c0-4.95-.56-9.03-1.68-12.24-1.12-3.21-2.73-5.75-4.82-7.6s-4.6-3.15-7.54-3.89c-2.94-.73-6.27-1.1-9.98-1.1-3.1,0-5.94.35-8.53,1.05-2.59.7-4.89,1.74-6.91,3.13-1.62,1.01-3.1,2.21-4.41,3.6-1.32,1.39-2.52,2.94-3.6,4.64v89.25h-32.38v-125.58Z"/>
  <path class="cls-1" d="M514.03,680.25c-7.89-3.17-14.66-7.5-20.31-13-5.65-5.41-10-11.82-13.06-19.21-3.06-7.39-4.58-15.3-4.58-23.74v-4.64c0-9.59,1.51-18.36,4.53-26.29,3.02-7.93,7.23-14.76,12.65-20.49,5.42-5.73,11.84-10.17,19.27-13.35,7.43-3.17,15.51-4.76,24.26-4.76s17.12,1.49,24.2,4.47,13.1,7.18,18.05,12.59c4.87,5.42,8.59,11.94,11.14,19.56,2.55,7.62,3.83,16.04,3.83,25.24v13.7h-85.19v.35c1.08,5.03,2.48,9.07,4.18,12.13,1.7,3.06,3.98,5.82,6.85,8.3,2.94,2.55,6.31,4.53,10.1,5.92,3.79,1.39,7.93,2.09,12.42,2.09,6.34,0,12.5-1.2,18.45-3.6,5.96-2.4,10.79-5.99,14.51-10.79l16.13,17.41c-4.1,5.8-10.6,11.07-19.5,15.79-8.9,4.72-19.42,7.08-31.57,7.08-9.67,0-18.45-1.59-26.35-4.76ZM526.57,582.82c-3.02,1.28-5.65,3.12-7.89,5.51-2.32,2.4-4.26,5.26-5.8,8.59-1.55,3.33-2.71,7.04-3.48,11.14h52.93v-2.55c0-3.4-.62-6.62-1.86-9.63-1.24-3.02-2.94-5.65-5.11-7.89-2.17-2.16-4.82-3.89-7.95-5.16-3.13-1.28-6.75-1.92-10.85-1.92-3.64,0-6.96.64-9.98,1.92Z"/>
  <rect class="cls-3" x="164" y="594" width="586" height="50"/>
  <path class="cls-3" d="M499.15,330.77c3.48-12.44,8.57-23.11,15.27-32.01,6.7-8.9,14.84-15.79,24.42-20.67,9.57-4.88,20.51-7.32,32.83-7.32,10.36,0,19.48,1.86,27.35,5.58,7.87,3.72,14.84,8.99,20.94,15.82v-100.78h51.03v280.95h-45.91l-2.56-20.67c-6.22,7.68-13.53,13.66-21.95,17.92-8.41,4.27-18.17,6.4-29.27,6.4-12.07,0-22.9-2.53-32.47-7.59-9.57-5.06-17.65-12.04-24.24-20.94-6.71-8.9-11.83-19.48-15.37-31.73-3.54-12.26-5.3-25.58-5.3-39.97v-3.84c0-15,1.74-28.72,5.21-41.16ZM546.89,398.9c1.4,7.13,3.69,13.32,6.86,18.57,3.17,5.37,7.25,9.57,12.26,12.62,5,3.05,11.09,4.57,18.29,4.57,8.78,0,16.06-1.89,21.86-5.67,5.79-3.78,10.39-8.96,13.81-15.55v-80.12c-3.42-6.7-7.99-11.92-13.72-15.64-5.73-3.72-12.93-5.58-21.58-5.58-7.2,0-13.32,1.55-18.38,4.66-5.06,3.11-9.18,7.35-12.35,12.71-3.17,5.49-5.49,11.86-6.95,19.11-1.46,7.26-2.2,15.03-2.2,23.32v3.84c0,8.29.7,16.01,2.1,23.14Z"/>
  <path class="cls-3" d="M336.16,468.05c-12.39-4.98-23.03-11.79-31.9-20.42-8.87-8.5-15.71-18.56-20.51-30.17-4.8-11.6-7.2-24.03-7.2-37.28v-7.29c0-15.07,2.37-28.83,7.11-41.29,4.74-12.45,11.36-23.18,19.87-32.17,8.5-8.99,18.59-15.98,30.26-20.96,11.67-4.98,24.36-7.47,38.1-7.47s26.89,2.34,38.01,7.02c11.12,4.68,20.57,11.27,28.35,19.78,7.66,8.51,13.49,18.75,17.5,30.71,4.01,11.97,6.02,25.19,6.02,39.65v21.51h-133.8v.55c1.7,7.9,3.89,14.25,6.56,19.05,2.67,4.8,6.26,9.14,10.75,13.03,4.62,4.01,9.9,7.11,15.86,9.3,5.95,2.19,12.45,3.28,19.5,3.28,9.96,0,19.62-1.88,28.98-5.65,9.36-3.77,16.95-9.41,22.79-16.95l25.34,27.34c-6.44,9.12-16.65,17.38-30.62,24.79-13.98,7.41-30.5,11.12-49.58,11.12-15.19,0-28.98-2.49-41.38-7.47ZM355.84,315.02c-4.74,2-8.87,4.89-12.39,8.66-3.65,3.77-6.68,8.26-9.11,13.49-2.43,5.23-4.25,11.06-5.47,17.5h83.12v-4.01c0-5.34-.98-10.39-2.92-15.13-1.95-4.74-4.62-8.87-8.02-12.4-3.4-3.4-7.57-6.11-12.49-8.11-4.92-2.01-10.6-3.01-17.04-3.01-5.71,0-10.94,1-15.68,3.01Z"/>
</svg>